<svg width="20" height="20" viewBox="0 0 20 20" fill="none" xmlns="http://www.w3.org/2000/svg">
<path d="M18.75 3.75H1.25V16.25H18.75V3.75Z" fill="#FE0000"/>
<path d="M7.5 10V3.75H1.25V10H7.5Z" fill="#000095"/>
<path fill-rule="evenodd" clip-rule="evenodd" d="M4.69875 5.94285L4.37699 5L4.05895 5.93195L3.2303 5.35055L3.54543 6.29566H2.50395L3.33671 6.87172L2.5 7.4423L3.54121 7.44902L3.21938 8.39207L4.0523 7.8159L4.36379 8.75L4.69219 7.80937L5.53457 8.39207L5.21641 7.4598L6.24598 7.46645L5.40773 6.87828L6.25 6.29566H5.22066L5.54543 5.36547L4.69875 5.94285Z" fill="white"/>
<path fill-rule="evenodd" clip-rule="evenodd" d="M4.375 6.01562C3.90038 6.01562 3.51562 6.40039 3.51562 6.875C3.51562 7.34961 3.90038 7.73438 4.375 7.73438C4.84961 7.73438 5.23438 7.34961 5.23438 6.875C5.23438 6.40039 4.84961 6.01562 4.375 6.01562ZM3.35938 6.875C3.35938 6.3141 3.81409 5.85938 4.375 5.85938C4.9359 5.85938 5.39062 6.3141 5.39062 6.875C5.39062 7.4359 4.9359 7.89062 4.375 7.89062C3.81409 7.89062 3.35938 7.4359 3.35938 6.875Z" fill="#000095"/>
</svg>
